<?xml version="1.0" standalone="no"?>
<!DOCTYPE svg PUBLIC "-//W3C//DTD SVG 1.0//EN" "http://www.w3.org/TR/2001/REC-SVG-20010904/DTD/svg10.dtd">
<svg xmlns="http://www.w3.org/2000/svg" xmlns:xlink="http://www.w3.org/1999/xlink" id="body_1" width="36" height="27">

<g transform="matrix(0.03515625 0 0 0.03515625 0 0)">
	<g transform="matrix(2.56 0 0 2.56 -464.7424 -962.0992)">
	</g>
    <path transform="matrix(2.56 0 0 2.56 -464.7424 -962.0992)"  d="M238.0823 525.82C 238.0823 446.5947 302.3105 382.3699 381.54 382.3699C 460.7695 382.3699 524.9977 446.5947 524.9977 525.82C 524.9977 605.0453 460.7695 669.2701 381.54 669.2701C 302.3105 669.2701 238.0823 605.0453 238.0823 525.82" stroke="none" fill="#000000" fill-rule="nonzero" />
	<g transform="matrix(2.56 0 0 2.56 -464.7424 -962.0992)">
	</g>
    <path transform="matrix(2.56 0 0 2.56 -464.7424 -962.0992)"  d="M344.29 425.8551C 333.9722 425.8551 325.6669 432.7928 325.6669 441.4098L325.6669 441.4098L325.6669 610.2321C 325.6669 618.8491 333.9722 625.7848 344.29 625.7848L344.29 625.7848L418.79 625.7848C 429.1078 625.7848 437.4131 618.8491 437.4131 610.2321L437.4131 610.2321L437.4131 441.4098C 437.4131 432.7928 429.1078 425.8551 418.79 425.8551L418.79 425.8551L344.29 425.8551zM368.3564 433.8571L394.7236 433.8571C 395.8316 433.8571 396.7236 434.7081 396.7236 435.7672C 396.7236 436.8264 395.8316 437.6794 394.7236 437.6794L394.7236 437.6794L368.3564 437.6794C 367.2484 437.6794 366.3564 436.8264 366.3564 435.7672C 366.3564 434.7081 367.2484 433.8571 368.3564 433.8571zM345.4872 444.3844L417.5908 444.3844C 421.5328 444.3844 424.706 446.902 424.706 450.0309L424.706 450.0309L424.706 593.6071C 424.706 596.736 421.5328 599.2555 417.5908 599.2555L417.5908 599.2555L345.4872 599.2555C 341.5453 599.2555 338.372 596.736 338.372 593.6071L338.372 593.6071L338.372 450.0309C 338.372 446.9019 341.5452 444.3844 345.4872 444.3844zM368.3564 607.8375L394.7236 607.8375C 395.8316 607.8375 396.7236 608.7296 396.7236 609.8375L396.7236 609.8375L396.7236 614.9293C 396.7236 616.0373 395.8316 616.9293 394.7236 616.9293L394.7236 616.9293L368.3564 616.9293C 367.2484 616.9293 366.3564 616.0373 366.3564 614.9293L366.3564 614.9293L366.3564 609.8375C 366.3564 608.7296 367.2484 607.8375 368.3564 607.8375z" stroke="none" fill="#FFFFFF" fill-rule="nonzero" />
</g>
</svg>